<svg xmlns="http://www.w3.org/2000/svg" viewBox="0 0 220 220" width="220" height="220" role="img" aria-label="ASL handshape for 5">
<title>ASL handshape for 5</title>
<rect width="220" height="220" rx="14" fill="#111127"/>
<polygon points="126.1,194.0 113.7,136.4 124.6,135.8 135.3,138.7 144.5,144.9" fill="#2e2461" stroke="#4c3a96" stroke-width="6" stroke-linejoin="round"/>
<line x1="144.5" y1="144.9" x2="161.6" y2="113.4" stroke="#8b5cf6" stroke-width="4.4" stroke-linecap="round" opacity="0.55"/><line x1="161.6" y1="113.4" x2="171.7" y2="95.5" stroke="#8b5cf6" stroke-width="4.5" stroke-linecap="round" opacity="0.56"/><line x1="171.7" y1="95.5" x2="180.1" y2="81.1" stroke="#8b5cf6" stroke-width="4.6" stroke-linecap="round" opacity="0.58"/>
<line x1="135.3" y1="138.7" x2="146.5" y2="92.1" stroke="#8b5cf6" stroke-width="5.0" stroke-linecap="round" opacity="0.62"/><line x1="146.5" y1="92.1" x2="154.0" y2="63.3" stroke="#8b5cf6" stroke-width="5.3" stroke-linecap="round" opacity="0.66"/><line x1="154.0" y1="63.3" x2="159.3" y2="43.6" stroke="#8b5cf6" stroke-width="5.6" stroke-linecap="round" opacity="0.70"/>
<line x1="124.6" y1="135.8" x2="124.0" y2="81.8" stroke="#8b5cf6" stroke-width="5.4" stroke-linecap="round" opacity="0.68"/><line x1="124.0" y1="81.8" x2="124.1" y2="48.2" stroke="#8b5cf6" stroke-width="6.0" stroke-linecap="round" opacity="0.75"/><line x1="124.1" y1="48.2" x2="124.5" y2="26.0" stroke="#8b5cf6" stroke-width="6.4" stroke-linecap="round" opacity="0.80"/>
<line x1="113.7" y1="136.4" x2="99.8" y2="88.8" stroke="#8b5cf6" stroke-width="5.8" stroke-linecap="round" opacity="0.72"/><line x1="99.8" y1="88.8" x2="91.9" y2="60.4" stroke="#8b5cf6" stroke-width="6.5" stroke-linecap="round" opacity="0.81"/><line x1="91.9" y1="60.4" x2="86.7" y2="40.5" stroke="#8b5cf6" stroke-width="7.0" stroke-linecap="round" opacity="0.87"/>
<line x1="109.1" y1="182.9" x2="79.3" y2="170.1" stroke="#f472b6" stroke-width="5.7" stroke-linecap="round" opacity="0.72"/><line x1="79.3" y1="170.1" x2="57.5" y2="160.6" stroke="#f472b6" stroke-width="6.8" stroke-linecap="round" opacity="0.85"/><line x1="57.5" y1="160.6" x2="39.9" y2="153.1" stroke="#f472b6" stroke-width="7.6" stroke-linecap="round" opacity="0.96"/>
<g fill="#00d4c8">
<circle cx="126.1" cy="194.0" r="6.5"/>
<circle cx="109.1" cy="182.9" r="3.0"/>
<circle cx="79.3" cy="170.1" r="3.0"/>
<circle cx="57.5" cy="160.6" r="3.0"/>
<circle cx="113.7" cy="136.4" r="3.0"/>
<circle cx="99.8" cy="88.8" r="3.0"/>
<circle cx="91.9" cy="60.4" r="3.0"/>
<circle cx="86.7" cy="40.5" r="5.5"/>
<circle cx="124.6" cy="135.8" r="3.0"/>
<circle cx="124.0" cy="81.8" r="3.0"/>
<circle cx="124.1" cy="48.2" r="3.0"/>
<circle cx="124.5" cy="26.0" r="5.5"/>
<circle cx="135.3" cy="138.7" r="3.0"/>
<circle cx="146.5" cy="92.1" r="3.0"/>
<circle cx="154.0" cy="63.3" r="3.0"/>
<circle cx="159.3" cy="43.6" r="5.5"/>
<circle cx="144.5" cy="144.9" r="3.0"/>
<circle cx="161.6" cy="113.4" r="3.0"/>
<circle cx="171.7" cy="95.5" r="3.0"/>
<circle cx="180.1" cy="81.1" r="5.5"/>
</g>
<circle cx="39.9" cy="153.1" r="7.5" fill="#f472b6" stroke="#111127" stroke-width="2"/>
<text x="206" y="208" text-anchor="end" fill="#64748b" font-family="system-ui, sans-serif" font-size="20" font-weight="600">5</text>
</svg>