<svg xmlns="http://www.w3.org/2000/svg" viewBox="0 0 220 220" width="220" height="220" role="img" aria-label="ASL handshape for 7">
<title>ASL handshape for 7</title>
<rect width="220" height="220" rx="14" fill="#111127"/>
<polygon points="100.7,194.0 88.3,136.3 99.3,135.6 109.9,138.5 119.2,144.8" fill="#2e2461" stroke="#4c3a96" stroke-width="6" stroke-linejoin="round"/>
<line x1="119.2" y1="144.8" x2="135.8" y2="112.8" stroke="#8b5cf6" stroke-width="4.4" stroke-linecap="round" opacity="0.55"/><line x1="135.8" y1="112.8" x2="145.7" y2="94.7" stroke="#8b5cf6" stroke-width="4.5" stroke-linecap="round" opacity="0.56"/><line x1="145.7" y1="94.7" x2="153.9" y2="80.1" stroke="#8b5cf6" stroke-width="4.6" stroke-linecap="round" opacity="0.58"/>
<line x1="99.3" y1="135.6" x2="101.3" y2="81.6" stroke="#8b5cf6" stroke-width="5.3" stroke-linecap="round" opacity="0.66"/><line x1="101.3" y1="81.6" x2="103.1" y2="48.1" stroke="#8b5cf6" stroke-width="5.7" stroke-linecap="round" opacity="0.72"/><line x1="103.1" y1="48.1" x2="104.5" y2="26.0" stroke="#8b5cf6" stroke-width="6.1" stroke-linecap="round" opacity="0.76"/>
<line x1="88.3" y1="136.3" x2="76.8" y2="87.9" stroke="#8b5cf6" stroke-width="5.6" stroke-linecap="round" opacity="0.70"/><line x1="76.8" y1="87.9" x2="70.4" y2="59.0" stroke="#8b5cf6" stroke-width="6.2" stroke-linecap="round" opacity="0.77"/><line x1="70.4" y1="59.0" x2="66.1" y2="38.9" stroke="#8b5cf6" stroke-width="6.6" stroke-linecap="round" opacity="0.82"/>
<line x1="83.7" y1="182.9" x2="104.6" y2="158.5" stroke="#f472b6" stroke-width="5.5" stroke-linecap="round" opacity="0.69"/><line x1="104.6" y1="158.5" x2="118.7" y2="150.0" stroke="#f472b6" stroke-width="6.6" stroke-linecap="round" opacity="0.82"/><line x1="118.7" y1="150.0" x2="127.3" y2="151.2" stroke="#f472b6" stroke-width="7.6" stroke-linecap="round" opacity="0.94"/>
<line x1="109.9" y1="138.5" x2="132.3" y2="113.6" stroke="#8b5cf6" stroke-width="5.7" stroke-linecap="round" opacity="0.72"/><line x1="132.3" y1="113.6" x2="136.9" y2="134.9" stroke="#8b5cf6" stroke-width="7.2" stroke-linecap="round" opacity="0.90"/><line x1="136.9" y1="134.9" x2="133.9" y2="156.0" stroke="#8b5cf6" stroke-width="7.7" stroke-linecap="round" opacity="0.96"/>
<g fill="#00d4c8">
<circle cx="100.7" cy="194.0" r="6.5"/>
<circle cx="83.7" cy="182.9" r="3.0"/>
<circle cx="104.6" cy="158.5" r="3.0"/>
<circle cx="118.7" cy="150.0" r="3.0"/>
<circle cx="88.3" cy="136.3" r="3.0"/>
<circle cx="76.8" cy="87.9" r="3.0"/>
<circle cx="70.4" cy="59.0" r="3.0"/>
<circle cx="66.1" cy="38.9" r="5.5"/>
<circle cx="99.3" cy="135.6" r="3.0"/>
<circle cx="101.3" cy="81.6" r="3.0"/>
<circle cx="103.1" cy="48.1" r="3.0"/>
<circle cx="104.5" cy="26.0" r="5.5"/>
<circle cx="109.9" cy="138.5" r="3.0"/>
<circle cx="132.3" cy="113.6" r="3.0"/>
<circle cx="136.9" cy="134.9" r="3.0"/>
<circle cx="133.9" cy="156.0" r="5.5"/>
<circle cx="119.2" cy="144.8" r="3.0"/>
<circle cx="135.8" cy="112.8" r="3.0"/>
<circle cx="145.7" cy="94.7" r="3.0"/>
<circle cx="153.9" cy="80.1" r="5.5"/>
</g>
<circle cx="127.3" cy="151.2" r="7.5" fill="#f472b6" stroke="#111127" stroke-width="2"/>
<text x="206" y="208" text-anchor="end" fill="#64748b" font-family="system-ui, sans-serif" font-size="20" font-weight="600">7</text>
</svg>