<svg xmlns="http://www.w3.org/2000/svg" viewBox="0 0 220 220" width="220" height="220" role="img" aria-label="ASL handshape for B">
<title>ASL handshape for B</title>
<rect width="220" height="220" rx="14" fill="#111127"/>
<polygon points="105.2,194.0 92.7,136.0 103.7,135.3 114.5,138.3 123.7,144.5" fill="#2e2461" stroke="#4c3a96" stroke-width="6" stroke-linejoin="round"/>
<line x1="123.7" y1="144.5" x2="127.2" y2="108.0" stroke="#8b5cf6" stroke-width="4.7" stroke-linecap="round" opacity="0.59"/><line x1="127.2" y1="108.0" x2="129.7" y2="86.8" stroke="#8b5cf6" stroke-width="5.3" stroke-linecap="round" opacity="0.67"/><line x1="129.7" y1="86.8" x2="131.9" y2="69.4" stroke="#8b5cf6" stroke-width="5.8" stroke-linecap="round" opacity="0.72"/>
<line x1="114.5" y1="138.3" x2="118.9" y2="89.9" stroke="#8b5cf6" stroke-width="5.5" stroke-linecap="round" opacity="0.69"/><line x1="118.9" y1="89.9" x2="122.2" y2="59.8" stroke="#8b5cf6" stroke-width="6.3" stroke-linecap="round" opacity="0.78"/><line x1="122.2" y1="59.8" x2="124.7" y2="39.0" stroke="#8b5cf6" stroke-width="6.8" stroke-linecap="round" opacity="0.86"/>
<line x1="88.1" y1="182.9" x2="92.1" y2="146.1" stroke="#f472b6" stroke-width="5.6" stroke-linecap="round" opacity="0.70"/><line x1="92.1" y1="146.1" x2="98.9" y2="123.3" stroke="#f472b6" stroke-width="6.2" stroke-linecap="round" opacity="0.77"/><line x1="98.9" y1="123.3" x2="105.3" y2="107.0" stroke="#f472b6" stroke-width="7.4" stroke-linecap="round" opacity="0.92"/>
<line x1="103.7" y1="135.3" x2="108.4" y2="81.3" stroke="#8b5cf6" stroke-width="6.0" stroke-linecap="round" opacity="0.75"/><line x1="108.4" y1="81.3" x2="111.8" y2="47.9" stroke="#8b5cf6" stroke-width="6.9" stroke-linecap="round" opacity="0.86"/><line x1="111.8" y1="47.9" x2="114.3" y2="26.0" stroke="#8b5cf6" stroke-width="7.5" stroke-linecap="round" opacity="0.94"/>
<line x1="92.7" y1="136.0" x2="97.5" y2="86.5" stroke="#8b5cf6" stroke-width="6.5" stroke-linecap="round" opacity="0.81"/><line x1="97.5" y1="86.5" x2="100.8" y2="57.5" stroke="#8b5cf6" stroke-width="7.2" stroke-linecap="round" opacity="0.90"/><line x1="100.8" y1="57.5" x2="103.3" y2="37.7" stroke="#8b5cf6" stroke-width="7.7" stroke-linecap="round" opacity="0.96"/>
<g fill="#00d4c8">
<circle cx="105.2" cy="194.0" r="6.5"/>
<circle cx="88.1" cy="182.9" r="3.0"/>
<circle cx="92.1" cy="146.1" r="3.0"/>
<circle cx="98.9" cy="123.3" r="3.0"/>
<circle cx="92.7" cy="136.0" r="3.0"/>
<circle cx="97.5" cy="86.5" r="3.0"/>
<circle cx="100.8" cy="57.5" r="3.0"/>
<circle cx="103.3" cy="37.7" r="5.5"/>
<circle cx="103.7" cy="135.3" r="3.0"/>
<circle cx="108.4" cy="81.3" r="3.0"/>
<circle cx="111.8" cy="47.9" r="3.0"/>
<circle cx="114.3" cy="26.0" r="5.5"/>
<circle cx="114.5" cy="138.3" r="3.0"/>
<circle cx="118.9" cy="89.9" r="3.0"/>
<circle cx="122.2" cy="59.8" r="3.0"/>
<circle cx="124.7" cy="39.0" r="5.5"/>
<circle cx="123.7" cy="144.5" r="3.0"/>
<circle cx="127.2" cy="108.0" r="3.0"/>
<circle cx="129.7" cy="86.8" r="3.0"/>
<circle cx="131.9" cy="69.4" r="5.5"/>
</g>
<circle cx="105.3" cy="107.0" r="7.5" fill="#f472b6" stroke="#111127" stroke-width="2"/>
<text x="206" y="208" text-anchor="end" fill="#64748b" font-family="system-ui, sans-serif" font-size="20" font-weight="600">B</text>
</svg>