<svg xmlns="http://www.w3.org/2000/svg" viewBox="0 0 220 220" width="220" height="220" role="img" aria-label="ASL handshape for N">
<title>ASL handshape for N</title>
<rect width="220" height="220" rx="14" fill="#111127"/>
<g stroke="#8b5cf6" stroke-width="7" stroke-linecap="round" opacity="0.95">
<line x1="96.3" y1="135.7" x2="54.1" y2="114.9"/>
<line x1="54.1" y1="114.9" x2="40.0" y2="94.1"/>
<line x1="40.0" y1="94.1" x2="26.0" y2="73.3"/>
<line x1="26.0" y1="73.3" x2="96.3" y2="170.2"/>
<line x1="96.3" y1="135.7" x2="49.3" y2="84.0"/>
<line x1="49.3" y1="84.0" x2="92.9" y2="53.4"/>
<line x1="92.9" y1="53.4" x2="119.4" y2="75.6"/>
<line x1="119.4" y1="75.6" x2="119.4" y2="100.7"/>
<line x1="96.3" y1="135.7" x2="80.6" y2="84.0"/>
<line x1="80.6" y1="84.0" x2="129.4" y2="49.8"/>
<line x1="129.4" y1="49.8" x2="158.2" y2="74.0"/>
<line x1="158.2" y1="74.0" x2="158.2" y2="100.6"/>
<line x1="96.3" y1="135.7" x2="112.0" y2="84.0"/>
<line x1="112.0" y1="84.0" x2="155.6" y2="53.4"/>
<line x1="155.6" y1="53.4" x2="182.1" y2="75.6"/>
<line x1="182.1" y1="75.6" x2="182.1" y2="100.7"/>
<line x1="96.3" y1="135.7" x2="140.2" y2="84.0"/>
<line x1="140.2" y1="84.0" x2="173.6" y2="60.6"/>
<line x1="173.6" y1="60.6" x2="194.0" y2="77.7"/>
<line x1="194.0" y1="77.7" x2="194.0" y2="98.1"/>
<line x1="49.3" y1="84.0" x2="80.6" y2="84.0"/>
<line x1="80.6" y1="84.0" x2="112.0" y2="84.0"/>
<line x1="112.0" y1="84.0" x2="140.2" y2="84.0"/>
</g>
<g fill="#00d4c8">
<circle cx="96.3" cy="135.7" r="7.0"/>
<circle cx="54.1" cy="114.9" r="3.4"/>
<circle cx="40.0" cy="94.1" r="3.4"/>
<circle cx="26.0" cy="73.3" r="3.4"/>
<circle cx="96.3" cy="170.2" r="6.0"/>
<circle cx="49.3" cy="84.0" r="3.4"/>
<circle cx="92.9" cy="53.4" r="3.4"/>
<circle cx="119.4" cy="75.6" r="3.4"/>
<circle cx="119.4" cy="100.7" r="6.0"/>
<circle cx="80.6" cy="84.0" r="3.4"/>
<circle cx="129.4" cy="49.8" r="3.4"/>
<circle cx="158.2" cy="74.0" r="3.4"/>
<circle cx="158.2" cy="100.6" r="6.0"/>
<circle cx="112.0" cy="84.0" r="3.4"/>
<circle cx="155.6" cy="53.4" r="3.4"/>
<circle cx="182.1" cy="75.6" r="3.4"/>
<circle cx="182.1" cy="100.7" r="6.0"/>
<circle cx="140.2" cy="84.0" r="3.4"/>
<circle cx="173.6" cy="60.6" r="3.4"/>
<circle cx="194.0" cy="77.7" r="3.4"/>
<circle cx="194.0" cy="98.1" r="6.0"/>
</g>
<text x="206" y="208" text-anchor="end" fill="#64748b" font-family="system-ui, sans-serif" font-size="20" font-weight="600">N</text>
</svg>