<svg xmlns="http://www.w3.org/2000/svg" viewBox="0 0 220 220" width="220" height="220" role="img" aria-label="ASL handshape for O">
<title>ASL handshape for O</title>
<rect width="220" height="220" rx="14" fill="#111127"/>
<polygon points="88.9,194.0 65.1,83.6 86.1,82.3 106.5,87.9 124.2,99.8" fill="#2e2461" stroke="#4c3a96" stroke-width="6" stroke-linejoin="round"/>
<line x1="124.2" y1="99.8" x2="157.4" y2="65.4" stroke="#8b5cf6" stroke-width="5.1" stroke-linecap="round" opacity="0.64"/><line x1="157.4" y1="65.4" x2="163.7" y2="94.3" stroke="#8b5cf6" stroke-width="6.1" stroke-linecap="round" opacity="0.76"/><line x1="163.7" y1="94.3" x2="159.0" y2="127.8" stroke="#8b5cf6" stroke-width="6.5" stroke-linecap="round" opacity="0.81"/>
<line x1="106.5" y1="87.9" x2="144.3" y2="39.1" stroke="#8b5cf6" stroke-width="5.6" stroke-linecap="round" opacity="0.70"/><line x1="144.3" y1="39.1" x2="156.8" y2="80.8" stroke="#8b5cf6" stroke-width="7.0" stroke-linecap="round" opacity="0.87"/><line x1="156.8" y1="80.8" x2="154.8" y2="121.9" stroke="#8b5cf6" stroke-width="7.4" stroke-linecap="round" opacity="0.92"/>
<line x1="56.3" y1="172.8" x2="75.2" y2="122.1" stroke="#f472b6" stroke-width="5.6" stroke-linecap="round" opacity="0.69"/><line x1="75.2" y1="122.1" x2="93.0" y2="105.8" stroke="#f472b6" stroke-width="6.7" stroke-linecap="round" opacity="0.83"/><line x1="93.0" y1="105.8" x2="107.7" y2="110.1" stroke="#f472b6" stroke-width="7.6" stroke-linecap="round" opacity="0.95"/>
<line x1="86.1" y1="82.3" x2="121.4" y2="26.0" stroke="#8b5cf6" stroke-width="6.0" stroke-linecap="round" opacity="0.75"/><line x1="121.4" y1="26.0" x2="137.8" y2="72.3" stroke="#8b5cf6" stroke-width="7.4" stroke-linecap="round" opacity="0.93"/><line x1="137.8" y1="72.3" x2="139.1" y2="116.3" stroke="#8b5cf6" stroke-width="7.9" stroke-linecap="round" opacity="0.98"/>
<line x1="65.1" y1="83.6" x2="89.5" y2="32.3" stroke="#8b5cf6" stroke-width="6.1" stroke-linecap="round" opacity="0.77"/><line x1="89.5" y1="32.3" x2="106.2" y2="72.6" stroke="#8b5cf6" stroke-width="7.4" stroke-linecap="round" opacity="0.93"/><line x1="106.2" y1="72.6" x2="111.0" y2="112.4" stroke="#8b5cf6" stroke-width="7.8" stroke-linecap="round" opacity="0.97"/>
<g fill="#00d4c8">
<circle cx="88.9" cy="194.0" r="6.5"/>
<circle cx="56.3" cy="172.8" r="3.0"/>
<circle cx="75.2" cy="122.1" r="3.0"/>
<circle cx="93.0" cy="105.8" r="3.0"/>
<circle cx="65.1" cy="83.6" r="3.0"/>
<circle cx="89.5" cy="32.3" r="3.0"/>
<circle cx="106.2" cy="72.6" r="3.0"/>
<circle cx="111.0" cy="112.4" r="5.5"/>
<circle cx="86.1" cy="82.3" r="3.0"/>
<circle cx="121.4" cy="26.0" r="3.0"/>
<circle cx="137.8" cy="72.3" r="3.0"/>
<circle cx="139.1" cy="116.3" r="5.5"/>
<circle cx="106.5" cy="87.9" r="3.0"/>
<circle cx="144.3" cy="39.1" r="3.0"/>
<circle cx="156.8" cy="80.8" r="3.0"/>
<circle cx="154.8" cy="121.9" r="5.5"/>
<circle cx="124.2" cy="99.8" r="3.0"/>
<circle cx="157.4" cy="65.4" r="3.0"/>
<circle cx="163.7" cy="94.3" r="3.0"/>
<circle cx="159.0" cy="127.8" r="5.5"/>
</g>
<circle cx="107.7" cy="110.1" r="7.5" fill="#f472b6" stroke="#111127" stroke-width="2"/>
<text x="206" y="208" text-anchor="end" fill="#64748b" font-family="system-ui, sans-serif" font-size="20" font-weight="600">O</text>
</svg>