<svg xmlns="http://www.w3.org/2000/svg" viewBox="0 0 220 220" width="220" height="220" role="img" aria-label="ASL handshape for S">
<title>ASL handshape for S</title>
<rect width="220" height="220" rx="14" fill="#111127"/>
<polygon points="86.4,194.0 50.5,27.9 82.1,26.0 112.8,34.4 139.4,52.4" fill="#2e2461" stroke="#4c3a96" stroke-width="6" stroke-linejoin="round"/>
<line x1="139.4" y1="52.4" x2="182.8" y2="55.3" stroke="#8b5cf6" stroke-width="5.3" stroke-linecap="round" opacity="0.66"/><line x1="182.8" y1="55.3" x2="164.0" y2="115.3" stroke="#8b5cf6" stroke-width="6.1" stroke-linecap="round" opacity="0.76"/><line x1="164.0" y1="115.3" x2="142.5" y2="121.5" stroke="#8b5cf6" stroke-width="5.5" stroke-linecap="round" opacity="0.69"/>
<line x1="112.8" y1="34.4" x2="167.6" y2="36.1" stroke="#8b5cf6" stroke-width="5.9" stroke-linecap="round" opacity="0.74"/><line x1="167.6" y1="36.1" x2="149.4" y2="123.5" stroke="#8b5cf6" stroke-width="6.9" stroke-linecap="round" opacity="0.86"/><line x1="149.4" y1="123.5" x2="126.2" y2="130.6" stroke="#8b5cf6" stroke-width="6.2" stroke-linecap="round" opacity="0.78"/>
<line x1="82.1" y1="26.0" x2="139.3" y2="26.8" stroke="#8b5cf6" stroke-width="6.3" stroke-linecap="round" opacity="0.78"/><line x1="139.3" y1="26.8" x2="127.6" y2="124.4" stroke="#8b5cf6" stroke-width="7.3" stroke-linecap="round" opacity="0.91"/><line x1="127.6" y1="124.4" x2="105.3" y2="131.9" stroke="#8b5cf6" stroke-width="6.6" stroke-linecap="round" opacity="0.82"/>
<line x1="37.2" y1="162.1" x2="82.7" y2="77.1" stroke="#f472b6" stroke-width="5.5" stroke-linecap="round" opacity="0.69"/><line x1="82.7" y1="77.1" x2="118.0" y2="44.1" stroke="#f472b6" stroke-width="6.5" stroke-linecap="round" opacity="0.82"/><line x1="118.0" y1="44.1" x2="144.0" y2="37.3" stroke="#f472b6" stroke-width="7.5" stroke-linecap="round" opacity="0.94"/>
<line x1="50.5" y1="27.9" x2="98.1" y2="28.9" stroke="#8b5cf6" stroke-width="6.4" stroke-linecap="round" opacity="0.80"/><line x1="98.1" y1="28.9" x2="97.2" y2="113.5" stroke="#8b5cf6" stroke-width="7.4" stroke-linecap="round" opacity="0.92"/><line x1="97.2" y1="113.5" x2="79.4" y2="120.8" stroke="#8b5cf6" stroke-width="6.7" stroke-linecap="round" opacity="0.84"/>
<g fill="#00d4c8">
<circle cx="86.4" cy="194.0" r="6.5"/>
<circle cx="37.2" cy="162.1" r="3.0"/>
<circle cx="82.7" cy="77.1" r="3.0"/>
<circle cx="118.0" cy="44.1" r="3.0"/>
<circle cx="50.5" cy="27.9" r="3.0"/>
<circle cx="98.1" cy="28.9" r="3.0"/>
<circle cx="97.2" cy="113.5" r="3.0"/>
<circle cx="79.4" cy="120.8" r="5.5"/>
<circle cx="82.1" cy="26.0" r="3.0"/>
<circle cx="139.3" cy="26.8" r="3.0"/>
<circle cx="127.6" cy="124.4" r="3.0"/>
<circle cx="105.3" cy="131.9" r="5.5"/>
<circle cx="112.8" cy="34.4" r="3.0"/>
<circle cx="167.6" cy="36.1" r="3.0"/>
<circle cx="149.4" cy="123.5" r="3.0"/>
<circle cx="126.2" cy="130.6" r="5.5"/>
<circle cx="139.4" cy="52.4" r="3.0"/>
<circle cx="182.8" cy="55.3" r="3.0"/>
<circle cx="164.0" cy="115.3" r="3.0"/>
<circle cx="142.5" cy="121.5" r="5.5"/>
</g>
<circle cx="144.0" cy="37.3" r="7.5" fill="#f472b6" stroke="#111127" stroke-width="2"/>
<text x="206" y="208" text-anchor="end" fill="#64748b" font-family="system-ui, sans-serif" font-size="20" font-weight="600">S</text>
</svg>