<svg xmlns="http://www.w3.org/2000/svg" viewBox="0 0 220 220" width="220" height="220" role="img" aria-label="ASL handshape for T">
<title>ASL handshape for T</title>
<rect width="220" height="220" rx="14" fill="#111127"/>
<g stroke="#8b5cf6" stroke-width="7" stroke-linecap="round" opacity="0.95">
<line x1="102.8" y1="134.0" x2="59.7" y2="117.7"/>
<line x1="59.7" y1="117.7" x2="42.8" y2="101.5"/>
<line x1="42.8" y1="101.5" x2="26.0" y2="85.2"/>
<line x1="26.0" y1="85.2" x2="102.8" y2="166.2"/>
<line x1="102.8" y1="134.0" x2="59.0" y2="85.7"/>
<line x1="59.0" y1="85.7" x2="99.7" y2="57.2"/>
<line x1="99.7" y1="57.2" x2="124.3" y2="77.9"/>
<line x1="124.3" y1="77.9" x2="124.3" y2="101.3"/>
<line x1="102.8" y1="134.0" x2="88.2" y2="85.7"/>
<line x1="88.2" y1="85.7" x2="133.7" y2="53.8"/>
<line x1="133.7" y1="53.8" x2="160.6" y2="76.4"/>
<line x1="160.6" y1="76.4" x2="160.6" y2="101.3"/>
<line x1="102.8" y1="134.0" x2="117.5" y2="85.7"/>
<line x1="117.5" y1="85.7" x2="158.2" y2="57.2"/>
<line x1="158.2" y1="57.2" x2="182.9" y2="77.9"/>
<line x1="182.9" y1="77.9" x2="182.9" y2="101.3"/>
<line x1="102.8" y1="134.0" x2="143.8" y2="85.7"/>
<line x1="143.8" y1="85.7" x2="175.0" y2="63.9"/>
<line x1="175.0" y1="63.9" x2="194.0" y2="79.9"/>
<line x1="194.0" y1="79.9" x2="194.0" y2="98.9"/>
<line x1="59.0" y1="85.7" x2="88.2" y2="85.7"/>
<line x1="88.2" y1="85.7" x2="117.5" y2="85.7"/>
<line x1="117.5" y1="85.7" x2="143.8" y2="85.7"/>
</g>
<g fill="#00d4c8">
<circle cx="102.8" cy="134.0" r="7.0"/>
<circle cx="59.7" cy="117.7" r="3.4"/>
<circle cx="42.8" cy="101.5" r="3.4"/>
<circle cx="26.0" cy="85.2" r="3.4"/>
<circle cx="102.8" cy="166.2" r="6.0"/>
<circle cx="59.0" cy="85.7" r="3.4"/>
<circle cx="99.7" cy="57.2" r="3.4"/>
<circle cx="124.3" cy="77.9" r="3.4"/>
<circle cx="124.3" cy="101.3" r="6.0"/>
<circle cx="88.2" cy="85.7" r="3.4"/>
<circle cx="133.7" cy="53.8" r="3.4"/>
<circle cx="160.6" cy="76.4" r="3.4"/>
<circle cx="160.6" cy="101.3" r="6.0"/>
<circle cx="117.5" cy="85.7" r="3.4"/>
<circle cx="158.2" cy="57.2" r="3.4"/>
<circle cx="182.9" cy="77.9" r="3.4"/>
<circle cx="182.9" cy="101.3" r="6.0"/>
<circle cx="143.8" cy="85.7" r="3.4"/>
<circle cx="175.0" cy="63.9" r="3.4"/>
<circle cx="194.0" cy="79.9" r="3.4"/>
<circle cx="194.0" cy="98.9" r="6.0"/>
</g>
<text x="206" y="208" text-anchor="end" fill="#64748b" font-family="system-ui, sans-serif" font-size="20" font-weight="600">T</text>
</svg>